#!OML:ASF F:\VICON\USERDATA\INSTALL\rory3\rory3.ASF
:FULLY-SPECIFIED
:DEGREES
1101
root 3.282 16.4684 0.753937 11.0537 5.87452 5.64503
lowerback -6.59557 2.11859 -3.13245
upperback -0.561583 3.11323 -1.75727
thorax 3.04701 1.52006 0.224372
lowerneck 4.26199 7.07116 6.74486
upperneck 57.7166 11.1527 2.81509
head 26.0562 6.2932 2.44818
rclavicle -2.65874e-015 2.62396e-014
rhumerus -47.3604 2.84546 -87.3276
rradius 59.2404
rwrist -48.0153
rhand -7.04614 -49.5087
rfingers 7.12502
rthumb 18.8264 -78.6176
lclavicle -2.65874e-015 2.62396e-014
lhumerus -24.6621 -6.48917 88.0812
lradius 36.2068
lwrist 69.8251
lhand -40.8137 -11.4328
lfingers 7.12502
lthumb -13.7521 18.0927
rfemur -51.5371 16.6684 4.58067
rtibia 75.9328
rfoot 6.07694 13.7487
rtoes -30.8879
lfemur -29.4694 -7.82231 -31.9824
ltibia 46.796
lfoot -23.4107 14.4955
ltoes 5.32567
1102
root 3.28243 16.471 0.754686 11.0625 5.81969 5.70404
lowerback -5.80544 1.82215 -0.203038
upperback 0.634069 2.55267 -2.63895
thorax 4.02438 1.29542 -2.37927
lowerneck 0.930687 8.69823 3.19313
upperneck 57.622 13.3032 4.96088
head 26.1509 6.33024 4.93169
rclavicle -2.23136e-014 4.96962e-015
rhumerus -44.0258 3.89255 -88.2543
rradius 58.7296
rwrist -48.0922
rhand -7.12933 -49.8529
rfingers 7.12502
rthumb 18.7464 -78.9696
lclavicle -2.23136e-014 4.96962e-015
lhumerus -21.6264 -5.38694 86.757
lradius 36.0354
lwrist 69.8997
lhand -40.7581 -11.6484
lfingers 7.12502
lthumb -13.6985 17.8807
rfemur -51.5389 16.7589 4.49938
rtibia 75.9107
rfoot 5.8515 13.9086
rtoes -32.2424
lfemur -29.4777 -7.74417 -32.0376
ltibia 46.7926
lfoot -23.5559 14.226
ltoes 8.29862
1103
root 3.28967 16.4754 0.755907 11.01 5.7485 5.65011
lowerback -5.83029 2.07896 0.0568333
upperback 0.651452 2.8864 -2.83117
thorax 4.09411 1.4703 -2.69183
lowerneck 0.927541 8.49804 3.28763
upperneck 57.5885 12.8026 5.2734
head 26.0656 6.20206 5.00683
rclavicle 3.40419e-015 -1.55052e-014
rhumerus -44.1799 3.20207 -88.2747
rradius 58.8449
rwrist -48.0945
rhand -7.4744 -49.4291
rfingers 7.12502
rthumb 18.4145 -78.5775
lclavicle 3.40419e-015 -1.55052e-014
lhumerus -21.4574 -6.12807 86.7767
lradius 35.8392
lwrist 69.89
lhand -39.9296 -12.1682
lfingers 7.12502
lthumb -12.8999 17.4131
rfemur -51.4741 16.8734 4.51468
rtibia 75.8576
rfoot 5.89953 13.8387
rtoes -32.181
lfemur -29.4588 -7.70616 -32.0094
ltibia 46.8028
lfoot -23.5857 14.1336
ltoes 7.43844
1104
root 3.29665 16.4761 0.754123 10.9353 5.76707 5.49572
lowerback -5.77365 2.04206 0.201012
upperback 0.703607 2.82366 -2.74595
thorax 4.11572 1.44173 -2.69144
lowerneck 0.89681 8.56332 3.11457
upperneck 57.5559 12.901 5.32984
head 25.9741 6.20984 5.07451
rclavicle -1.41634e-014 1.39149e-014
rhumerus -44.1534 3.35154 -88.2825
rradius 58.9225
rwrist -48.0355
rhand -7.76153 -48.8363
rfingers 7.12502
rthumb 18.1383 -78.0105
lclavicle -1.41634e-014 1.39149e-014
lhumerus -21.326 -5.91982 86.769
lradius 35.6303
lwrist 69.6585
lhand -39.0195 -12.8604
lfingers 7.12502
lthumb -12.0225 16.7743
rfemur -51.3876 16.951 4.68108
rtibia 75.8342
rfoot 5.80413 13.7746
rtoes -32.2235
lfemur -29.4243 -7.72684 -31.869
ltibia 46.8178
lfoot -23.532 14.1793
ltoes 8.87235
1105
root 3.30252 16.476 0.752754 10.9534 5.84107 5.43716
lowerback -5.80034 1.86829 0.148658
upperback 0.717063 2.58963 -2.60107
thorax 4.12325 1.32218 -2.533
lowerneck 0.898415 8.72437 2.91063
upperneck 57.4941 13.2364 5.21372
head 25.8531 6.28541 5.07452
rclavicle 1.49337e-014 -2.84262e-014
rhumerus -44.1346 3.8252 -88.3084
rradius 59.0067
rwrist -47.979
rhand -7.56701 -49.0814
rfingers 7.12502
rthumb 18.3254 -78.2382
lclavicle 1.49337e-014 -2.84262e-014
lhumerus -21.4625 -5.28934 86.7232
lradius 35.7304
lwrist 69.4448
lhand -38.9571 -12.5951
lfingers 7.12502
lthumb -11.9623 17.0431
rfemur -51.3746 16.9249 4.74376
rtibia 75.8505
rfoot 5.60542 13.8443
rtoes -32.8955
lfemur -29.4332 -7.82008 -31.8125
ltibia 46.8045
lfoot -23.5187 14.2119
ltoes 7.36765
1106
root 3.30791 16.4738 0.756082 10.9768 5.85469 5.55004
lowerback -5.92217 1.75672 -0.0458537
upperback 0.771629 2.45574 -2.55625
thorax 4.23189 1.251 -2.38577
lowerneck 0.897609 8.82736 2.72111
upperneck 57.351 13.4391 5.1332
head 25.6254 6.32743 5.05247
rclavicle 5.36719e-015 -1.66979e-014
rhumerus -44.019 4.12055 -88.3169
rradius 59.0349
rwrist -47.9682
rhand -7.12119 -49.7072
rfingers 7.12502
rthumb 18.7543 -78.8232
lclavicle 5.36719e-015 -1.66979e-014
lhumerus -21.5638 -4.7837 86.6741
lradius 35.915
lwrist 69.5248
lhand -39.0835 -12.0788
lfingers 7.12502
lthumb -12.0842 17.5523
rfemur -51.3773 16.8922 4.59234
rtibia 75.897
rfoot 5.56027 13.8528
rtoes -33.0868
lfemur -29.3642 -7.84091 -31.9781
ltibia 46.7634
lfoot -23.4729 14.3706
ltoes 8.29974
1107
root 3.31326 16.468 0.758422 10.953 5.85174 5.68026
lowerback -5.88301 1.76478 -0.144892
upperback 0.758663 2.47535 -2.61411
thorax 4.19563 1.25905 -2.38959
lowerneck 0.978134 8.81718 2.69231
upperneck 57.3055 13.4049 5.15864
head 25.5151 6.32155 5.04327
rclavicle 6.21202e-014 -4.53229e-014
rhumerus -44.0322 4.03439 -88.2919
rradius 59.0766
rwrist -47.8847
rhand -7.01064 -50.3175
rfingers 7.12502
rthumb 18.8606 -79.4231
lclavicle 6.21202e-014 -4.53229e-014
lhumerus -21.591 -4.70882 86.661
lradius 35.9668
lwrist 69.8018
lhand -39.5686 -12.1214
lfingers 7.12502
lthumb -12.5519 17.4815
rfemur -51.3612 16.8257 4.43524
rtibia 75.9778
rfoot 5.55368 13.8273
rtoes -32.9554
lfemur -29.269 -7.83351 -32.1697
ltibia 46.7314
lfoot -23.4136 14.4923
ltoes 5.55767
